<svg width="51" height="51" viewBox="0 0 51 51" fill="none" xmlns="http://www.w3.org/2000/svg">
<g clip-path="url(#clip0_52_104)">
<path d="M25.5 39C32.9558 39 39 32.9558 39 25.5C39 18.0442 32.9558 12 25.5 12C18.0442 12 12 18.0442 12 25.5C12 32.9558 18.0442 39 25.5 39Z" stroke="white" stroke-width="6"/>
<path d="M26 0H25C22.7909 0 21 1.79086 21 4V10C21 12.2091 22.7909 14 25 14H26C28.2091 14 30 12.2091 30 10V4C30 1.79086 28.2091 0 26 0Z" fill="white"/>
<path d="M51 26V25C51 22.7909 49.2091 21 47 21H41C38.7909 21 37 22.7909 37 25V26C37 28.2091 38.7909 30 41 30H47C49.2091 30 51 28.2091 51 26Z" fill="white"/>
<path d="M43.1778 43.8847L43.885 43.1776C45.447 41.6155 45.447 39.0829 43.885 37.5208L39.6423 33.2781C38.0802 31.716 35.5476 31.716 33.9855 33.2781L33.2784 33.9852C31.7163 35.5473 31.7163 38.08 33.2784 39.6421L37.521 43.8847C39.0831 45.4468 41.6157 45.4468 43.1778 43.8847Z" fill="white"/>
<path d="M7.11535 43.1778L7.82245 43.8849C9.38455 45.447 11.9172 45.447 13.4793 43.8849L17.7219 39.6423C19.284 38.0802 19.284 35.5475 17.7219 33.9854L17.0148 33.2783C15.4527 31.7162 12.9201 31.7162 11.358 33.2783L7.11535 37.5209C5.55325 39.083 5.55325 41.6157 7.11535 43.1778Z" fill="white"/>
<path d="M26 37H25C22.7909 37 21 38.7909 21 41V47C21 49.2091 22.7909 51 25 51H26C28.2091 51 30 49.2091 30 47V41C30 38.7909 28.2091 37 26 37Z" fill="white"/>
<path d="M14 26V25C14 22.7909 12.2091 21 10 21H4C1.79086 21 0 22.7909 0 25V26C0 28.2091 1.79086 30 4 30H10C12.2091 30 14 28.2091 14 26Z" fill="white"/>
<path d="M17.0148 17.7218L17.7219 17.0147C19.284 15.4526 19.284 12.9199 17.7219 11.3579L13.4792 7.11521C11.9171 5.55311 9.38447 5.55311 7.82237 7.11521L7.11526 7.82232C5.55317 9.38442 5.55317 11.9171 7.11526 13.4792L11.3579 17.7218C12.92 19.2839 15.4527 19.2839 17.0148 17.7218Z" fill="white"/>
<path d="M33.2784 17.0146L33.9855 17.7217C35.5476 19.2838 38.0803 19.2838 39.6424 17.7217L43.885 13.4791C45.4471 11.917 45.4471 9.38434 43.885 7.82225L43.1779 7.11514C41.6158 5.55304 39.0832 5.55305 37.5211 7.11514L33.2784 11.3578C31.7163 12.9199 31.7163 15.4525 33.2784 17.0146Z" fill="white"/>
</g>
<defs>
<clipPath id="clip0_52_104">
<rect width="51" height="51" fill="white"/>
</clipPath>
</defs>
</svg>
