<svg width="11" height="11" viewBox="0 0 11 11" fill="none" xmlns="http://www.w3.org/2000/svg">
<g clip-path="url(#clip0_12_172)">
<path d="M6.5 1C6.5 0.447715 6.05228 0 5.5 0C4.94772 0 4.5 0.447715 4.5 1V10C4.5 10.5523 4.94772 11 5.5 11C6.05228 11 6.5 10.5523 6.5 10V1Z" fill="#676767"/>
<path d="M1 4.5C0.447715 4.5 0 4.94772 0 5.5C0 6.05228 0.447715 6.5 1 6.5L10 6.5C10.5523 6.5 11 6.05228 11 5.5C11 4.94772 10.5523 4.5 10 4.5L1 4.5Z" fill="#676767"/>
</g>
<defs>
<clipPath id="clip0_12_172">
<rect width="11" height="11" fill="white"/>
</clipPath>
</defs>
</svg>
