<svg width="18" height="15" viewBox="0 0 18 15" fill="none" xmlns="http://www.w3.org/2000/svg">
<path d="M11.7951 14.5118C11.1561 15.1627 10.1183 15.1627 9.47927 14.5118C8.84024 13.8609 8.84024 12.8038 9.47927 12.1528L14.0496 7.4974L9.47927 2.84716C8.84024 2.19623 8.84024 1.13912 9.47927 0.488196C10.1183 -0.162732 11.1561 -0.162732 11.7951 0.488196L17.5207 6.32052C18.1598 6.97145 18.1598 8.02855 17.5207 8.67948L11.7951 14.5118Z" fill="white"/>
<path d="M15 7.5C15 8.32843 14.3284 9 13.5 9L1.5 9C0.671572 9 0 8.32843 0 7.5C0 6.67157 0.671572 6 1.5 6L13.5 6C14.3284 6 15 6.67157 15 7.5Z" fill="white"/>
</svg>
