<svg width="14" height="14" viewBox="0 0 14 14" fill="none" xmlns="http://www.w3.org/2000/svg">
<g clip-path="url(#clip0_129_10)">
<path d="M7.00016 13.4167C10.544 13.4167 13.4168 10.5438 13.4168 7C13.4168 3.45617 10.544 0.583333 7.00016 0.583333C3.45634 0.583333 0.583496 3.45617 0.583496 7C0.583496 10.5438 3.45634 13.4167 7.00016 13.4167Z" stroke="#672323"/>
<path d="M7.00016 11.6667C7.64449 11.6667 8.16683 11.1443 8.16683 10.5C8.16683 9.85567 7.64449 9.33333 7.00016 9.33333C6.35583 9.33333 5.8335 9.85567 5.8335 10.5C5.8335 11.1443 6.35583 11.6667 7.00016 11.6667Z" fill="#672323"/>
<path d="M8.16683 3.5C8.16683 2.85567 7.64449 2.33333 7.00016 2.33333C6.35583 2.33333 5.8335 2.85567 5.8335 3.5V7C5.8335 7.64433 6.35583 8.16667 7.00016 8.16667C7.64449 8.16667 8.16683 7.64433 8.16683 7V3.5Z" fill="#672323"/>
</g>
<defs>
<clipPath id="clip0_129_10">
<rect width="14" height="14" fill="white"/>
</clipPath>
</defs>
</svg>
