<svg width="260" height="334" viewBox="0 0 260 334" fill="none" xmlns="http://www.w3.org/2000/svg">
<path d="M0 49C0 34.0883 12.0883 22 27 22H233C247.912 22 260 34.0883 260 49V62H0V49Z" fill="#AB6666"/>
<rect x="61" width="138" height="55" rx="19" fill="#AB6666"/>
<path fill-rule="evenodd" clip-rule="evenodd" d="M22 72H238V297C238 317.435 221.435 334 201 334H59C38.5655 334 22 317.435 22 297V72ZM146 109.037C146 101.857 151.82 96.0367 159 96.0367H193C200.18 96.0367 206 101.857 206 109.037V296.963C206 304.143 200.18 309.963 193 309.963H159C151.82 309.963 146 304.143 146 296.963V109.037ZM67 96.0367C59.8203 96.0367 54 101.857 54 109.037V296.963C54 304.143 59.8203 309.963 67 309.963H101C108.18 309.963 114 304.143 114 296.963V109.037C114 101.857 108.18 96.0367 101 96.0367H67Z" fill="#AB6666"/>
</svg>


