<svg width="12" height="12" viewBox="0 0 12 12" fill="none" xmlns="http://www.w3.org/2000/svg">
<g clip-path="url(#clip0_13_220)">
<path d="M4.01529 2.94456C3.71962 2.64889 3.24023 2.64889 2.94455 2.94456C2.64887 3.24024 2.64887 3.71963 2.94455 4.01531L7.76289 8.83365C8.05857 9.12932 8.53796 9.12932 8.83363 8.83365C9.12931 8.53797 9.12931 8.05858 8.83363 7.7629L4.01529 2.94456Z" fill="white"/>
<path d="M2.94461 7.7629C2.64893 8.05858 2.64893 8.53797 2.94461 8.83365C3.24029 9.12932 3.71967 9.12932 4.01535 8.83365L8.83369 4.01531C9.12937 3.71963 9.12937 3.24024 8.83369 2.94456C8.53802 2.64889 8.05863 2.64889 7.76295 2.94456L2.94461 7.7629Z" fill="white"/>
</g>
<defs>
<clipPath id="clip0_13_220">
<rect width="8.32842" height="8.32842" fill="white" transform="translate(0 5.8891) rotate(-45)"/>
</clipPath>
</defs>
</svg>
